# xmcd
#
# Track frame offsets:
#       150
#       14792
#       29507
#       40887
#       57430
#       71750
#       85487
#       98487
#       113197
#       128207
#
# Disc length: 1897 seconds
#
# Revision: 0
# Processed by: cddbd v1.4PL0 Copyright (c) Steve Scherf et al.
# Submitted via: CD-DA_X-Tractor v0.23
#
DISCID=8c07670a
DTITLE=Salomon Robles y sus Legendarios - Por favor no me Compares
DYEAR=1900
DGENRE=Ranchera
TTITLE0=por favor no me compares
TTITLE1=a donde vayas
TTITLE2=Mi Prisionera
TTITLE3=Tu Pirata soy Yo
TTITLE4=Un Pedacito
TTITLE5=Niña Mia
TTITLE6=Ya No Somos Amantes
TTITLE7=Estoy Enamorada de Ti
TTITLE8=No Puedo
TTITLE9=Vete Con El
EXTD=
EXTT0=
EXTT1=
EXTT2=
EXTT3=
EXTT4=
EXTT5=
EXTT6=
EXTT7=
EXTT8=
EXTT9=
PLAYORDER=
